<svg width="32" height="32" viewBox="0 0 32 32" fill="none" xmlns="http://www.w3.org/2000/svg">
<path d="M15.0253 5.88149C15.334 5.18899 15.4884 4.84273 15.7033 4.73611C15.89 4.64347 16.1092 4.64347 16.2958 4.73611C16.5108 4.84273 16.6652 5.18899 16.9738 5.88149L19.4325 11.3974C19.5238 11.6021 19.5694 11.7045 19.6401 11.7829C19.7025 11.8522 19.7789 11.9077 19.8641 11.9457C19.9605 11.9886 20.072 12.0004 20.2949 12.0239L26.3006 12.6578C27.0546 12.7373 27.4316 12.7771 27.5994 12.9486C27.7452 13.0975 27.8129 13.306 27.7825 13.5122C27.7476 13.7496 27.466 14.0033 26.9028 14.5109L22.4165 18.5538C22.2501 18.7038 22.1668 18.7789 22.1141 18.8702C22.0674 18.9512 22.0382 19.0409 22.0285 19.1337C22.0174 19.2386 22.0406 19.3482 22.0872 19.5676L23.3402 25.4752C23.4976 26.2169 23.5762 26.5877 23.465 26.8002C23.3684 26.985 23.191 27.1138 22.9856 27.1486C22.749 27.1886 22.4206 26.9993 21.7638 26.6205L16.5325 23.6032C16.3384 23.4912 16.2413 23.4353 16.1381 23.4133C16.0468 23.394 15.9524 23.394 15.861 23.4133C15.7578 23.4353 15.6608 23.4912 15.4666 23.6032L10.2353 26.6205C9.57856 26.9993 9.25017 27.1886 9.01362 27.1486C8.80814 27.1138 8.63076 26.985 8.53417 26.8002C8.42298 26.5877 8.50164 26.2169 8.65896 25.4752L9.91197 19.5676C9.95848 19.3482 9.98173 19.2386 9.97069 19.1337C9.96092 19.0409 9.93176 18.9512 9.88509 18.8702C9.83236 18.7789 9.7491 18.7038 9.58261 18.5538L5.09645 14.5109C4.53324 14.0033 4.25162 13.7496 4.21661 13.5122C4.18621 13.306 4.25396 13.0975 4.39974 12.9486C4.56758 12.7771 4.94458 12.7373 5.69858 12.6578L11.7043 12.0239C11.9272 12.0004 12.0387 11.9886 12.135 11.9457C12.2203 11.9077 12.2966 11.8522 12.3591 11.7829C12.4297 11.7045 12.4753 11.6021 12.5666 11.3974L15.0253 5.88149Z" fill="#FFDD63"/>
</svg>
