<svg width="70" height="32" viewBox="0 0 70 32" fill="none" xmlns="http://www.w3.org/2000/svg">
<path d="M15.0253 5.88149C15.334 5.18899 15.4884 4.84273 15.7033 4.73611C15.89 4.64347 16.1092 4.64347 16.2958 4.73611C16.5108 4.84273 16.6652 5.18899 16.9738 5.88149L19.4325 11.3974C19.5238 11.6021 19.5694 11.7045 19.6401 11.7829C19.7025 11.8522 19.7789 11.9077 19.8641 11.9457C19.9605 11.9886 20.072 12.0004 20.2949 12.0239L26.3006 12.6578C27.0546 12.7373 27.4316 12.7771 27.5994 12.9486C27.7452 13.0975 27.8129 13.306 27.7825 13.5122C27.7476 13.7496 27.466 14.0033 26.9028 14.5109L22.4165 18.5538C22.2501 18.7038 22.1668 18.7789 22.1141 18.8702C22.0674 18.9512 22.0382 19.0409 22.0285 19.1337C22.0174 19.2386 22.0406 19.3482 22.0872 19.5676L23.3402 25.4752C23.4976 26.2169 23.5762 26.5877 23.465 26.8002C23.3684 26.985 23.191 27.1138 22.9856 27.1486C22.749 27.1886 22.4206 26.9993 21.7638 26.6205L16.5325 23.6032C16.3384 23.4912 16.2413 23.4353 16.1381 23.4133C16.0468 23.394 15.9524 23.394 15.861 23.4133C15.7578 23.4353 15.6608 23.4912 15.4666 23.6032L10.2353 26.6205C9.57856 26.9993 9.25017 27.1886 9.01362 27.1486C8.80814 27.1138 8.63076 26.985 8.53417 26.8002C8.42298 26.5877 8.50164 26.2169 8.65896 25.4752L9.91197 19.5676C9.95848 19.3482 9.98173 19.2386 9.97069 19.1337C9.96092 19.0409 9.93176 18.9512 9.88509 18.8702C9.83236 18.7789 9.7491 18.7038 9.58261 18.5538L5.09645 14.5109C4.53324 14.0033 4.25162 13.7496 4.21661 13.5122C4.18621 13.306 4.25396 13.0975 4.39974 12.9486C4.56758 12.7771 4.94458 12.7373 5.69858 12.6578L11.7043 12.0239C11.9272 12.0004 12.0387 11.9886 12.135 11.9457C12.2203 11.9077 12.2966 11.8522 12.3591 11.7829C12.4297 11.7045 12.4753 11.6021 12.5666 11.3974L15.0253 5.88149Z" fill="#FFDD63"/>
<path d="M53.0253 5.88149C53.334 5.18899 53.4884 4.84273 53.7033 4.73611C53.89 4.64347 54.1092 4.64347 54.2958 4.73611C54.5108 4.84273 54.6652 5.18899 54.9738 5.88149L57.4325 11.3974C57.5238 11.6021 57.5694 11.7045 57.6401 11.7829C57.7025 11.8522 57.7789 11.9077 57.8641 11.9457C57.9605 11.9886 58.072 12.0004 58.2949 12.0239L64.3006 12.6578C65.0546 12.7373 65.4316 12.7771 65.5994 12.9486C65.7452 13.0975 65.8129 13.306 65.7825 13.5122C65.7476 13.7496 65.466 14.0033 64.9028 14.5109L60.4165 18.5538C60.2501 18.7038 60.1668 18.7789 60.1141 18.8702C60.0674 18.9512 60.0382 19.0409 60.0285 19.1337C60.0174 19.2386 60.0406 19.3482 60.0872 19.5676L61.3402 25.4752C61.4976 26.2169 61.5762 26.5877 61.465 26.8002C61.3684 26.985 61.191 27.1138 60.9856 27.1486C60.749 27.1886 60.4206 26.9993 59.7638 26.6205L54.5325 23.6032C54.3384 23.4912 54.2413 23.4353 54.1381 23.4133C54.0468 23.394 53.9524 23.394 53.861 23.4133C53.7578 23.4353 53.6608 23.4912 53.4666 23.6032L48.2353 26.6205C47.5786 26.9993 47.2502 27.1886 47.0136 27.1486C46.8081 27.1138 46.6308 26.985 46.5342 26.8002C46.423 26.5877 46.5016 26.2169 46.659 25.4752L47.912 19.5676C47.9585 19.3482 47.9817 19.2386 47.9707 19.1337C47.9609 19.0409 47.9318 18.9512 47.8851 18.8702C47.8324 18.7789 47.7491 18.7038 47.5826 18.5538L43.0965 14.5109C42.5332 14.0033 42.2516 13.7496 42.2166 13.5122C42.1862 13.306 42.254 13.0975 42.3997 12.9486C42.5676 12.7771 42.9446 12.7373 43.6986 12.6578L49.7043 12.0239C49.9272 12.0004 50.0387 11.9886 50.135 11.9457C50.2203 11.9077 50.2966 11.8522 50.3591 11.7829C50.4297 11.7045 50.4753 11.6021 50.5666 11.3974L53.0253 5.88149Z" fill="#FFDD63"/>
</svg>
