<svg width="184" height="32" viewBox="0 0 184 32" fill="none" xmlns="http://www.w3.org/2000/svg">
<path d="M15.0253 5.88149C15.334 5.18899 15.4884 4.84273 15.7033 4.73611C15.89 4.64347 16.1092 4.64347 16.2958 4.73611C16.5108 4.84273 16.6652 5.18899 16.9738 5.88149L19.4325 11.3974C19.5238 11.6021 19.5694 11.7045 19.6401 11.7829C19.7025 11.8522 19.7789 11.9077 19.8641 11.9457C19.9605 11.9886 20.072 12.0004 20.2949 12.0239L26.3006 12.6578C27.0546 12.7373 27.4316 12.7771 27.5994 12.9486C27.7452 13.0975 27.8129 13.306 27.7825 13.5122C27.7476 13.7496 27.466 14.0033 26.9028 14.5109L22.4165 18.5538C22.2501 18.7038 22.1668 18.7789 22.1141 18.8702C22.0674 18.9512 22.0382 19.0409 22.0285 19.1337C22.0174 19.2386 22.0406 19.3482 22.0872 19.5676L23.3402 25.4752C23.4976 26.2169 23.5762 26.5877 23.465 26.8002C23.3684 26.985 23.191 27.1138 22.9856 27.1486C22.749 27.1886 22.4206 26.9993 21.7638 26.6205L16.5325 23.6032C16.3384 23.4912 16.2413 23.4353 16.1381 23.4133C16.0468 23.394 15.9524 23.394 15.861 23.4133C15.7578 23.4353 15.6608 23.4912 15.4666 23.6032L10.2353 26.6205C9.57856 26.9993 9.25017 27.1886 9.01362 27.1486C8.80814 27.1138 8.63076 26.985 8.53417 26.8002C8.42298 26.5877 8.50164 26.2169 8.65896 25.4752L9.91197 19.5676C9.95848 19.3482 9.98173 19.2386 9.97069 19.1337C9.96092 19.0409 9.93176 18.9512 9.88509 18.8702C9.83236 18.7789 9.7491 18.7038 9.58261 18.5538L5.09645 14.5109C4.53324 14.0033 4.25162 13.7496 4.21661 13.5122C4.18621 13.306 4.25396 13.0975 4.39974 12.9486C4.56758 12.7771 4.94458 12.7373 5.69858 12.6578L11.7043 12.0239C11.9272 12.0004 12.0387 11.9886 12.135 11.9457C12.2203 11.9077 12.2966 11.8522 12.3591 11.7829C12.4297 11.7045 12.4753 11.6021 12.5666 11.3974L15.0253 5.88149Z" fill="#FFDD63"/>
<path d="M53.0253 5.88149C53.334 5.18899 53.4884 4.84273 53.7033 4.73611C53.89 4.64347 54.1092 4.64347 54.2958 4.73611C54.5108 4.84273 54.6652 5.18899 54.9738 5.88149L57.4325 11.3974C57.5238 11.6021 57.5694 11.7045 57.6401 11.7829C57.7025 11.8522 57.7789 11.9077 57.8641 11.9457C57.9605 11.9886 58.072 12.0004 58.2949 12.0239L64.3006 12.6578C65.0546 12.7373 65.4316 12.7771 65.5994 12.9486C65.7452 13.0975 65.8129 13.306 65.7825 13.5122C65.7476 13.7496 65.466 14.0033 64.9028 14.5109L60.4165 18.5538C60.2501 18.7038 60.1668 18.7789 60.1141 18.8702C60.0674 18.9512 60.0382 19.0409 60.0285 19.1337C60.0174 19.2386 60.0406 19.3482 60.0872 19.5676L61.3402 25.4752C61.4976 26.2169 61.5762 26.5877 61.465 26.8002C61.3684 26.985 61.191 27.1138 60.9856 27.1486C60.749 27.1886 60.4206 26.9993 59.7638 26.6205L54.5325 23.6032C54.3384 23.4912 54.2413 23.4353 54.1381 23.4133C54.0468 23.394 53.9524 23.394 53.861 23.4133C53.7578 23.4353 53.6608 23.4912 53.4666 23.6032L48.2353 26.6205C47.5786 26.9993 47.2502 27.1886 47.0136 27.1486C46.8081 27.1138 46.6308 26.985 46.5342 26.8002C46.423 26.5877 46.5016 26.2169 46.659 25.4752L47.912 19.5676C47.9585 19.3482 47.9817 19.2386 47.9707 19.1337C47.9609 19.0409 47.9318 18.9512 47.8851 18.8702C47.8324 18.7789 47.7491 18.7038 47.5826 18.5538L43.0965 14.5109C42.5332 14.0033 42.2516 13.7496 42.2166 13.5122C42.1862 13.306 42.254 13.0975 42.3997 12.9486C42.5676 12.7771 42.9446 12.7373 43.6986 12.6578L49.7043 12.0239C49.9272 12.0004 50.0387 11.9886 50.135 11.9457C50.2203 11.9077 50.2966 11.8522 50.3591 11.7829C50.4297 11.7045 50.4753 11.6021 50.5666 11.3974L53.0253 5.88149Z" fill="#FFDD63"/>
<path d="M91.0253 5.88149C91.334 5.18899 91.4884 4.84273 91.7033 4.73611C91.89 4.64347 92.1092 4.64347 92.2958 4.73611C92.5108 4.84273 92.6652 5.18899 92.9738 5.88149L95.4325 11.3974C95.5238 11.6021 95.5694 11.7045 95.6401 11.7829C95.7025 11.8522 95.7789 11.9077 95.8641 11.9457C95.9605 11.9886 96.072 12.0004 96.2949 12.0239L102.301 12.6578C103.055 12.7373 103.432 12.7771 103.599 12.9486C103.745 13.0975 103.813 13.306 103.783 13.5122C103.748 13.7496 103.466 14.0033 102.903 14.5109L98.4165 18.5538C98.2501 18.7038 98.1668 18.7789 98.1141 18.8702C98.0674 18.9512 98.0382 19.0409 98.0285 19.1337C98.0174 19.2386 98.0406 19.3482 98.0872 19.5676L99.3402 25.4752C99.4976 26.2169 99.5762 26.5877 99.465 26.8002C99.3684 26.985 99.191 27.1138 98.9856 27.1486C98.749 27.1886 98.4206 26.9993 97.7638 26.6205L92.5325 23.6032C92.3384 23.4912 92.2413 23.4353 92.1381 23.4133C92.0468 23.394 91.9524 23.394 91.861 23.4133C91.7578 23.4353 91.6608 23.4912 91.4666 23.6032L86.2353 26.6205C85.5786 26.9993 85.2502 27.1886 85.0136 27.1486C84.8081 27.1138 84.6308 26.985 84.5342 26.8002C84.423 26.5877 84.5016 26.2169 84.659 25.4752L85.912 19.5676C85.9585 19.3482 85.9817 19.2386 85.9707 19.1337C85.9609 19.0409 85.9318 18.9512 85.8851 18.8702C85.8324 18.7789 85.7491 18.7038 85.5826 18.5538L81.0965 14.5109C80.5332 14.0033 80.2516 13.7496 80.2166 13.5122C80.1862 13.306 80.254 13.0975 80.3997 12.9486C80.5676 12.7771 80.9446 12.7373 81.6986 12.6578L87.7043 12.0239C87.9272 12.0004 88.0387 11.9886 88.135 11.9457C88.2203 11.9077 88.2966 11.8522 88.3591 11.7829C88.4297 11.7045 88.4753 11.6021 88.5666 11.3974L91.0253 5.88149Z" fill="#FFDD63"/>
<path d="M129.025 5.88149C129.334 5.18899 129.488 4.84273 129.703 4.73611C129.89 4.64347 130.109 4.64347 130.296 4.73611C130.511 4.84273 130.665 5.18899 130.974 5.88149L133.433 11.3974C133.524 11.6021 133.569 11.7045 133.64 11.7829C133.703 11.8522 133.779 11.9077 133.864 11.9457C133.961 11.9886 134.072 12.0004 134.295 12.0239L140.301 12.6578C141.055 12.7373 141.432 12.7771 141.599 12.9486C141.745 13.0975 141.813 13.306 141.783 13.5122C141.748 13.7496 141.466 14.0033 140.903 14.5109L136.417 18.5538C136.25 18.7038 136.167 18.7789 136.114 18.8702C136.067 18.9512 136.038 19.0409 136.029 19.1337C136.017 19.2386 136.041 19.3482 136.087 19.5676L137.34 25.4752C137.498 26.2169 137.576 26.5877 137.465 26.8002C137.368 26.985 137.191 27.1138 136.986 27.1486C136.749 27.1886 136.421 26.9993 135.764 26.6205L130.533 23.6032C130.338 23.4912 130.241 23.4353 130.138 23.4133C130.047 23.394 129.952 23.394 129.861 23.4133C129.758 23.4353 129.661 23.4912 129.467 23.6032L124.235 26.6205C123.579 26.9993 123.25 27.1886 123.014 27.1486C122.808 27.1138 122.631 26.985 122.534 26.8002C122.423 26.5877 122.502 26.2169 122.659 25.4752L123.912 19.5676C123.958 19.3482 123.982 19.2386 123.971 19.1337C123.961 19.0409 123.932 18.9512 123.885 18.8702C123.832 18.7789 123.749 18.7038 123.583 18.5538L119.096 14.5109C118.533 14.0033 118.252 13.7496 118.217 13.5122C118.186 13.306 118.254 13.0975 118.4 12.9486C118.568 12.7771 118.945 12.7373 119.699 12.6578L125.704 12.0239C125.927 12.0004 126.039 11.9886 126.135 11.9457C126.22 11.9077 126.297 11.8522 126.359 11.7829C126.43 11.7045 126.475 11.6021 126.567 11.3974L129.025 5.88149Z" fill="#FFDD63"/>
<path d="M167.025 5.88149C167.334 5.18899 167.488 4.84273 167.703 4.73611C167.89 4.64347 168.109 4.64347 168.296 4.73611C168.511 4.84273 168.665 5.18899 168.974 5.88149L171.433 11.3974C171.524 11.6021 171.569 11.7045 171.64 11.7829C171.703 11.8522 171.779 11.9077 171.864 11.9457C171.961 11.9886 172.072 12.0004 172.295 12.0239L178.301 12.6578C179.055 12.7373 179.432 12.7771 179.599 12.9486C179.745 13.0975 179.813 13.306 179.783 13.5122C179.748 13.7496 179.466 14.0033 178.903 14.5109L174.417 18.5538C174.25 18.7038 174.167 18.7789 174.114 18.8702C174.067 18.9512 174.038 19.0409 174.029 19.1337C174.017 19.2386 174.041 19.3482 174.087 19.5676L175.34 25.4752C175.498 26.2169 175.576 26.5877 175.465 26.8002C175.368 26.985 175.191 27.1138 174.986 27.1486C174.749 27.1886 174.421 26.9993 173.764 26.6205L168.533 23.6032C168.338 23.4912 168.241 23.4353 168.138 23.4133C168.047 23.394 167.952 23.394 167.861 23.4133C167.758 23.4353 167.661 23.4912 167.467 23.6032L162.235 26.6205C161.579 26.9993 161.25 27.1886 161.014 27.1486C160.808 27.1138 160.631 26.985 160.534 26.8002C160.423 26.5877 160.502 26.2169 160.659 25.4752L161.912 19.5676C161.958 19.3482 161.982 19.2386 161.971 19.1337C161.961 19.0409 161.932 18.9512 161.885 18.8702C161.832 18.7789 161.749 18.7038 161.583 18.5538L157.096 14.5109C156.533 14.0033 156.252 13.7496 156.217 13.5122C156.186 13.306 156.254 13.0975 156.4 12.9486C156.568 12.7771 156.945 12.7373 157.699 12.6578L163.704 12.0239C163.927 12.0004 164.039 11.9886 164.135 11.9457C164.22 11.9077 164.297 11.8522 164.359 11.7829C164.43 11.7045 164.475 11.6021 164.567 11.3974L167.025 5.88149Z" fill="#FFDD63"/>
</svg>
